<?xml version="1.0" standalone="no"?><!DOCTYPE svg PUBLIC "-//W3C//DTD SVG 1.1//EN" "http://www.w3.org/Graphics/SVG/1.1/DTD/svg11.dtd"><svg t="1574493057745" class="icon" viewBox="0 0 1024 1024" version="1.1" xmlns="http://www.w3.org/2000/svg" p-id="1888" xmlns:xlink="http://www.w3.org/1999/xlink" width="200" height="200"><defs><style type="text/css"></style></defs><path d="M171.946667 399.36c0.426667-6.058667 0.853333-11.178667 1.365333-15.36C192.64 228.693333 316.501333 85.333333 512 85.333333c195.541333 0 319.402667 143.36 338.688 298.752 0.512 4.138667 0.981333 9.258667 1.365333 15.274667a25.6 25.6 0 0 1-25.514666 27.306667h-26.453334a34.133333 34.133333 0 0 1-33.962666-30.933334 193.28 193.28 0 0 0-1.408-11.562666C745.770667 263.509333 646.784 170.666667 512 170.666667 377.173333 170.666667 278.186667 263.552 259.285333 384.170667a193.152 193.152 0 0 0-1.408 11.562666 34.133333 34.133333 0 0 1-33.962666 30.933334h-26.453334a25.6 25.6 0 0 1-25.514666-27.306667z m98.005333 138.410667c1.706667 6.826667 3.328 12.544 4.693333 17.024C295.552 621.653333 333.312 677.973333 384 725.333333c30.293333 28.245333 63.232 52.949333 95.402667 69.333334 11.050667 5.632 24.064 12.885333 32.597333 16 8.362667-2.986667 21.76-10.282667 32.426667-15.786667 32.426667-16.64 65.322667-41.301333 95.573333-69.546667 50.986667-47.616 88.746667-103.424 109.610667-170.538666 1.365333-4.48 2.901333-10.112 4.608-16.938667a34.133333 34.133333 0 0 1 33.109333-25.856h27.221333a25.6 25.6 0 0 1 24.96 31.402667c-1.024 4.352-1.962667 8.106667-2.816 11.264-42.453333 155.818667-157.184 249.813333-239.36 298.666666 122.88 5.973333 213.333333 23.381333 213.333334 42.666667 0 23.552-133.717333 42.666667-298.666667 42.666667s-298.666667-19.114667-298.666667-42.666667c0-18.645333 90.453333-36.864 213.333334-42.666667-82.346667-48.725333-196.992-142.72-239.36-298.624a322.730667 322.730667 0 0 1-2.858667-11.306666 25.6 25.6 0 0 1 24.96-31.402667h27.477333a34.133333 34.133333 0 0 1 33.066667 25.770667zM512 597.333333a170.666667 170.666667 0 1 1 0-341.333333 170.666667 170.666667 0 0 1 0 341.333333z m0-85.333333a85.333333 85.333333 0 1 0 0-170.666667 85.333333 85.333333 0 0 0 0 170.666667z" p-id="1889" fill="#e6e6e6"></path></svg>